<svg width="17" height="20" viewBox="0 0 17 20" fill="none" xmlns="http://www.w3.org/2000/svg">
<path d="M7.57167 0.562838C7.15777 0.858482 6.81778 1.62716 6.81778 2.23323C6.81778 2.63235 6.7143 2.73583 6.00475 3.07582C4.97 3.57842 3.81698 4.80535 3.2996 5.89923C2.95961 6.66791 2.90048 7.0079 2.81179 9.12177C2.66396 12.3443 2.27962 13.5564 0.830963 15.4781C-0.292489 16.9711 -0.203796 17.0303 3.12221 17.0303H5.72389L6.03432 17.6807C6.21171 18.0355 6.61083 18.5233 6.90647 18.7598C7.40907 19.1294 7.57167 19.1737 8.59165 19.1737C9.61163 19.1737 9.77423 19.1294 10.2768 18.7598C10.5725 18.5233 10.9716 18.0355 11.149 17.6807L11.4594 17.0303H14.0611C17.3871 17.0303 17.4758 16.9711 16.3523 15.4781C14.9037 13.5564 14.5193 12.3443 14.3715 9.12177C14.2828 7.0079 14.2237 6.66791 13.8837 5.89923C13.3663 4.80535 12.2133 3.57842 11.1785 3.07582C10.469 2.73583 10.3655 2.63235 10.3655 2.23323C10.3655 1.62716 10.0255 0.858482 9.61163 0.562838C9.41946 0.429796 8.97599 0.326321 8.59165 0.326321C8.20731 0.326321 7.76384 0.429796 7.57167 0.562838ZM8.85773 1.68629C8.96121 1.78976 9.03512 2.0115 9.03512 2.20367C9.03512 2.48453 8.96121 2.54366 8.59165 2.54366C8.22209 2.54366 8.14818 2.48453 8.14818 2.20367C8.14818 1.89324 8.3847 1.5089 8.59165 1.5089C8.636 1.5089 8.75425 1.58281 8.85773 1.68629ZM10.5873 4.22884C11.489 4.67231 12.2577 5.48533 12.7455 6.52009C13.0263 7.0966 13.0855 7.56963 13.1889 9.63915C13.3072 12.3739 13.4698 13.113 14.3567 14.7686L14.9332 15.8477H8.59165H2.25006L2.82657 14.7686C3.69872 13.113 3.87611 12.3739 4.00915 9.63915C4.09784 7.68789 4.17175 7.06703 4.42305 6.52009C5.48738 4.11058 8.23688 3.0906 10.5873 4.22884ZM9.92205 17.3259C9.72988 17.6659 9.03512 18.065 8.59165 18.065C8.14818 18.065 7.45342 17.6659 7.26125 17.3259C7.11342 17.0451 7.15777 17.0303 8.59165 17.0303C10.0255 17.0303 10.0699 17.0451 9.92205 17.3259Z" fill="#C1C1C1"/>
<path d="M2.26496 2.78015C1.42237 3.66709 0.653692 5.29314 0.358047 6.83049C0.0624015 8.26437 0.18066 8.79654 0.786732 8.87045C1.28933 8.92958 1.42237 8.66349 1.54063 7.48091C1.67367 6.20964 2.1467 5.04184 2.98929 3.93317C3.77275 2.89841 3.87623 2.49929 3.43276 2.24799C3.00407 2.02626 2.97451 2.04104 2.26496 2.78015Z" fill="#C1C1C1"/>
<path d="M13.7358 2.26277C13.3072 2.49929 13.4254 2.91319 14.1941 3.93317C15.0367 5.04184 15.5097 6.20964 15.6428 7.48091C15.761 8.66349 15.894 8.92958 16.3966 8.87045C17.0027 8.79654 17.121 8.26437 16.8253 6.83049C16.5297 5.29314 15.761 3.66709 14.9184 2.78015C14.2237 2.05582 14.135 2.02626 13.7358 2.26277Z" fill="#C1C1C1"/>
</svg>
