<svg width="11" height="13" viewBox="0 0 11 13" fill="none" xmlns="http://www.w3.org/2000/svg">
<path d="M3.66078 0.283039C2.63236 0.81942 2.11343 1.62887 2.04739 2.81866C2.00021 3.80365 2.23609 4.46681 2.88711 5.14948C4.30236 6.60259 6.66112 6.22224 7.61406 4.36929C7.79333 4.00845 7.83107 3.7939 7.83107 3.01371C7.83107 1.9507 7.64237 1.43382 7.03853 0.829172C6.45355 0.253781 5.9535 0.0392289 5.04773 0.00997162C4.30236 -0.0192857 4.19858 0.000219345 3.66078 0.283039ZM6.05728 1.12174C6.87813 1.64837 7.2744 2.64312 7.02909 3.59885C6.86869 4.24251 6.08559 5.00319 5.444 5.14948C3.19846 5.64685 1.87756 2.70163 3.67965 1.23877C4.35897 0.692639 5.31191 0.643877 6.05728 1.12174Z" fill="#757575"/>
<path d="M2.15119 6.03693C1.36808 6.20273 0.896329 6.60257 0.490622 7.45103C0.141526 8.19221 0.00943504 8.90414 0 10.0354C0 10.9814 0.0188701 11.0984 0.254746 11.5178C0.452882 11.8494 0.641583 12.0347 1.00955 12.2199L1.50017 12.4735H5.03831C8.2651 12.4735 8.62363 12.454 8.96329 12.2882C9.89736 11.8494 10.2465 10.9521 10.0766 9.42101C9.84075 7.35351 9.15199 6.2905 7.88769 6.03693C7.43481 5.94916 7.33103 5.95892 7.03854 6.13446C5.97238 6.75861 5.67046 6.86589 5.00057 6.86589C4.38729 6.86589 4.27407 6.82688 3.51927 6.39777C3.07582 6.14421 2.67012 5.93941 2.62294 5.94916C2.5852 5.95892 2.3682 5.99792 2.15119 6.03693ZM2.88712 7.01217C4.08537 7.89964 5.69877 7.95816 6.94419 7.15846C7.5386 6.77812 7.68012 6.75861 8.04809 6.95366C8.8312 7.37301 9.29352 8.5628 9.29352 10.1232C9.29352 10.8936 9.06707 11.3422 8.58589 11.5568C8.12357 11.7518 1.99079 11.7616 1.51904 11.5568C0.952939 11.313 0.801979 11.0009 0.801979 10.0452C0.801979 8.58231 1.27373 7.32425 1.96249 6.97316C2.3682 6.76836 2.5569 6.77812 2.88712 7.01217Z" fill="#757575"/>
</svg>
